<?xml version="1.0" encoding="utf-8"?>
<!-- Generator: Adobe Illustrator 22.1.0, SVG Export Plug-In . SVG Version: 6.00 Build 0)  -->
<svg version="1.1" id="Art" xmlns="http://www.w3.org/2000/svg" xmlns:xlink="http://www.w3.org/1999/xlink" x="0px" y="0px"
	 viewBox="0 0 150.9 59.8" style="enable-background:new 0 0 150.9 59.8;" xml:space="preserve">
<style type="text/css">
	.st0{fill:#009639;}
	.st1{fill:#FFFFFF;}
	.st2{fill:#999999;}
</style>
<title>NGINX-horiz-white-type-RGB</title>
<path class="st0" d="M0.4,44.8c0.3,0.5,0.7,0.9,1.1,1.1l23.2,13.4l0,0c1,0.6,2.1,0.6,3.1,0L51,45.9c1-0.5,1.5-1.6,1.5-2.7V16.5l0,0
	c0-1.1-0.6-2.1-1.5-2.7L27.8,0.4v0c-1-0.6-2.1-0.6-3.1,0v0L1.5,13.8c-1,0.5-1.6,1.6-1.5,2.7l0,0v26.8C0,43.8,0.1,44.4,0.4,44.8"/>
<path class="st1" d="M18.9,40.1c0,1.6-1.3,3-3,3c-1.6,0-3-1.3-3-3l0,0l0-20.5c0.1-1.7,1.6-3,3.3-2.9c0,0,0.1,0,0.1,0
	c1.6,0,3,0.6,4.1,1.8l0.9,1.1l12.5,14.9V19.7h0c0-1.6,1.3-3,3-3c1.6,0,3,1.3,3,3c0,0,0,0,0,0h0l0,20.5c-0.1,1.7-1.6,3-3.3,2.9
	c0,0-0.1,0-0.1,0c-1.6,0-3-0.6-4.1-1.8l-13.4-16L18.9,40.1L18.9,40.1z"/>
<polygon class="st1" points="144,19.8 140.1,19.8 135.7,26.7 131.5,19.8 127.4,19.8 133.5,29.7 127.4,40 131.3,40 135.6,33 
	139.8,40 143.9,40 137.7,30 "/>
<polygon class="st1" points="122.4,19.8 122.4,33.5 114.4,19.8 111.2,19.8 111.2,40 114.4,40 114.4,26.3 122.4,40 125.7,40 
	125.7,19.8 "/>
<rect x="105" y="19.8" class="st1" width="3.5" height="20.2"/>
<path class="st1" d="M102.3,27v-1.1c0-3.9-2.9-6.4-7.9-6.4c-5,0-7.9,2.5-7.9,6.4v8.1c0,3.9,2.9,6.4,7.9,6.4s7.9-2.5,7.9-6.4v-4.7h-8
	v3.2h4.5v1.3c0,2.1-1.6,3.4-4.4,3.4c-2.8,0-4.4-1.3-4.4-3.4V26c0-2.1,1.6-3.4,4.4-3.4c2.8,0,4.4,1.3,4.4,3.4V27L102.3,27z"/>
<polygon class="st1" points="80.4,19.8 80.4,33.5 72.5,19.8 69.2,19.8 69.2,40 72.5,40 72.5,26.3 80.4,40 83.7,40 83.7,19.8 "/>
<path class="st2" d="M148.1,39.1h0.4v-0.8h0.3c0.1,0,0.3,0,0.4,0.1c0.2,0.1,0.2,0.3,0.2,0.5V39l0,0.1c0,0,0,0,0,0c0,0,0,0,0,0h0.4
	l0,0c0,0,0-0.1,0-0.1c0-0.1,0-0.1,0-0.2v-0.2c0-0.1,0-0.2-0.1-0.3c-0.1-0.1-0.2-0.2-0.4-0.2c0.1,0,0.2,0,0.3-0.1
	c0.1-0.1,0.2-0.3,0.2-0.4c0-0.2-0.1-0.5-0.3-0.5c-0.2-0.1-0.4-0.1-0.6-0.1h-0.8L148.1,39.1z M149.2,37.9c-0.1,0-0.2,0.1-0.4,0h-0.3
	v-0.8h0.3c0.2,0,0.3,0,0.5,0.1c0.1,0.1,0.2,0.2,0.1,0.3C149.4,37.7,149.3,37.9,149.2,37.9 M150.3,36.6c-0.4-0.4-0.9-0.6-1.4-0.6
	c-1.1,0-2,0.9-2,2c0,1.1,0.9,2,2,2c1.1,0,2-0.9,2-2C150.9,37.5,150.7,37,150.3,36.6 M150.1,36.8c0.3,0.3,0.5,0.7,0.5,1.2
	c0,0.9-0.7,1.7-1.7,1.7c-0.5,0-0.9-0.2-1.2-0.5c-0.3-0.3-0.5-0.8-0.5-1.2c0-0.9,0.8-1.7,1.7-1.7C149.4,36.3,149.8,36.5,150.1,36.8"
	/>
</svg>
